{"title":"Great Dictator, The (1940) The Speach","uid":7039546,"size":171508340,"categoryP":"video","categoryS":"hd___movies","magnet":"?xt=urn:btih:bdd90ed29b14db7705be2162b7eb63fa51540121&amp;dn=Great+Dictator%2C+The+%281940%29+The+Speach&amp;tr=udp%3A%2F%2Ftracker.openbittorrent.com%3A80&amp;tr=udp%3A%2F%2Fopen.demonii.com%3A1337&amp;tr=udp%3A%2F%2Ftracker.coppersurfer.tk%3A6969&amp;tr=udp%3A%2F%2Fexodus.desync.com%3A6969","seeders":1,"leechers":0,"uploader":"Jell181155","files":1,"time":1329491278,"description":"Complete name                            : Great Dictator, The (1940) The Speach.mkv\nFormat                                   : Matroska\nFormat version                           : Version 2\nFile size                                : 164 MiB\nDuration                                 : 3mn 44s\nOverall bit rate                         : 6 103 Kbps\nEncoded date                             : UTC 2011-06-01 20:21:01\nWriting application                      : mkvmerge v3.4.0 ('Rapunzel') built on May 15 2010 09:38:20\nWriting library                          : libebml v0.8.0 + libmatroska v0.9.0\n\nVideo\nID                                       : 1\nFormat                                   : AVC\nFormat/Info                              : Advanced Video Codec\nFormat profile                           : &lt;a class=&quot;__cf_email__&quot; href=&quot;/cdn-cgi/l/email-protection&quot; data-cfemail=&quot;c981a0aea18985fde7f8&quot;&gt;[email&amp;#160;protected]&lt;/a&gt;&lt;script cf-hash='f9e31' type=&quot;text/javascript&quot;&gt;\n/* &lt;![CDATA[ */!function(){try{var t=&quot;currentScript&quot;in document?document.currentScript:function(){for(var t=document.getElementsByTagName(&quot;script&quot;),e=t.length;e--;)if(t[e].getAttribute(&quot;cf-hash&quot;))return t[e]}();if(t&amp;&amp;t.previousSibling){var e,r,n,i,c=t.previousSibling,a=c.getAttribute(&quot;data-cfemail&quot;);if(a){for(e=&quot;&quot;,r=parseInt(a.substr(0,2),16),n=2;a.length-n;n+=2)i=parseInt(a.substr(n,2),16)^r,e+=String.fromCharCode(i);e=document.createTextNode(e),c.parentNode.replaceChild(e,c)}}}catch(u){}}();/* ]]&gt; */&lt;/script&gt;\nFormat settings, CABAC                   : Yes\nFormat settings, ReFrames                : 5 frames\nCodec ID                                 : V_MPEG4/ISO/AVC\nDuration                                 : 3mn 44s\nBit rate                                 : 5 534 Kbps\nWidth                                    : 960 pixels\nHeight                                   : 720 pixels\nDisplay aspect ratio                     : 4:3\nFrame rate                               : 23.976 fps\nColor space                              : YUV\nChroma subsampling                       : 4:2:0\nBit depth                                : 8 bits\nScan type                                : Progressive\nBits/(Pixel*Frame)                       : 0.334\nStream size                              : 148 MiB (91%)\nDefault                                  : No\nForced                                   : No\n\nAudio\nID                                       : 2\nFormat                                   : AC-3\nFormat/Info                              : Audio Coding 3\nMode extension                           : CM (complete main)\nCodec ID                                 : A_AC3\nDuration                                 : 3mn 44s\nBit rate mode                            : Constant\nBit rate                                 : 448 Kbps\nChannel(s)                               : 2 channels\nChannel positions                        : Front: L R\nSampling rate                            : 48.0 KHz\nBit depth                                : 16 bits\nCompression mode                         : Lossy\nStream size                              : 12.0 MiB (7%)\nLanguage                                 : English\nDefault                                  : Yes\nForced                                   : No\n\nText\nID                                       : 3\nFormat                                   : UTF-8\nCodec ID                                 : S_TEXT/UTF8\nCodec ID/Info                            : UTF-8 Plain Text\nLanguage                                 : English\nDefault                                  : Yes\nForced                                   : No\n\n","torrent":{"xt":"urn:btih:bdd90ed29b14db7705be2162b7eb63fa51540121","amp;dn":"Great+Dictator%2C+The+%281940%29+The+Speach","amp;tr":["udp%3A%2F%2Ftracker.openbittorrent.com%3A80","udp%3A%2F%2Fopen.demonii.com%3A1337","udp%3A%2F%2Ftracker.coppersurfer.tk%3A6969","udp%3A%2F%2Fexodus.desync.com%3A6969"],"infoHash":"bdd90ed29b14db7705be2162b7eb63fa51540121","infoHashBuffer":{"type":"Buffer","data":[189,217,14,210,155,20,219,119,5,190,33,98,183,235,99,250,81,84,1,33]},"announce":[],"urlList":[]}}